# xmcd
#
# Track frame offsets: 
#        150
#        16665
#        30120
#        41962
#        55339
#        66032
#        83850
#        101632
#        114187
#        126925
#        138240
#        148000
#        169820
#        185962
#
# Disc length: 2812 seconds
#
# Revision: 2
# Processed by: cddbd v1.5.2PL0 Copyright (c) Steve Scherf et al.
# Submitted via: ExactAudioCopy v0.99pb4
#
DISCID=be0afa0e
DTITLE=Сектор газа - Танцы после порева
DYEAR=1994
DGENRE=Punk Rock
TTITLE0=Танцы после порева
TTITLE1=Не даёт
TTITLE2=Метаморфоза
TTITLE3=Вдова
TTITLE4=Проститутка
TTITLE5=Комары
TTITLE6=Незнакомые места
TTITLE7=Казачья
TTITLE8=Сельский кайф
TTITLE9=Из чего же
TTITLE10=Богатые тоже плачут
TTITLE11=Укус вампира
TTITLE12=Злая ночь
TTITLE13=Вдова (Styob House rmx)
EXTD=
EXTT0=
EXTT1=
EXTT2=
EXTT3=
EXTT4=
EXTT5=
EXTT6=
EXTT7=
EXTT8=
EXTT9=
EXTT10=
EXTT11=
EXTT12=
EXTT13=
PLAYORDER=
